<?xml version="1.0" standalone="no"?>
<!DOCTYPE svg PUBLIC "-//W3C//DTD SVG 20010904//EN"
 "http://www.w3.org/TR/2001/REC-SVG-20010904/DTD/svg10.dtd">
<svg version="1.0" xmlns="http://www.w3.org/2000/svg"
 width="50.000000pt" height="50.000000pt" viewBox="0 0 50.000000 50.000000"
 preserveAspectRatio="xMidYMid meet">

<g transform="translate(0.000000,50.000000) scale(0.100000,-0.100000)"
fill="#243035" stroke="none">
<path d="M100 475 c0 -16 6 -25 15 -25 13 0 15 -29 15 -200 0 -171 -2 -200
-15 -200 -9 0 -15 -9 -15 -25 0 -22 4 -25 35 -25 l35 0 0 250 0 250 -35 0
c-31 0 -35 -3 -35 -25z"/>
<path d="M180 250 l0 -250 98 0 c63 0 102 4 110 12 7 7 12 29 12 50 0 34 -3
38 -25 38 l-25 0 0 150 0 150 25 0 c22 0 25 4 25 38 0 21 -5 43 -12 50 -8 8
-47 12 -110 12 l-98 0 0 -250z m188 193 c3 -19 -1 -23 -22 -23 -21 0 -26 5
-26 26 0 21 4 25 23 22 14 -2 23 -11 25 -25z m-60 -36 c6 -5 12 -19 12 -31 0
-39 -26 -48 -112 -37 -12 2 -9 69 3 73 20 7 84 3 97 -5z m-58 -117 c0 10 3 10
14 1 10 -8 16 -9 21 -1 9 15 35 -14 35 -40 0 -26 -26 -55 -35 -40 -5 8 -11 7
-21 -1 -11 -9 -14 -9 -14 1 0 9 -3 10 -13 1 -18 -15 -37 5 -37 39 0 34 19 54
37 39 10 -9 13 -8 13 1z m58 -133 c6 -5 12 -19 12 -31 0 -39 -26 -48 -112 -37
-12 2 -9 69 3 73 20 7 84 3 97 -5z m60 -99 c-2 -15 -11 -24 -25 -26 -19 -3
-23 1 -23 22 0 21 5 26 26 26 21 0 25 -4 22 -22z"/>
<path d="M335 440 c3 -5 8 -10 11 -10 2 0 4 5 4 10 0 6 -5 10 -11 10 -5 0 -7
-4 -4 -10z"/>
<path d="M220 375 c0 -11 11 -15 40 -15 29 0 40 4 40 15 0 11 -11 15 -40 15
-29 0 -40 -4 -40 -15z"/>
<path d="M220 250 c0 -17 7 -20 40 -20 33 0 40 3 40 20 0 17 -7 20 -40 20 -33
0 -40 -3 -40 -20z"/>
<path d="M220 125 c0 -11 11 -15 40 -15 29 0 40 4 40 15 0 11 -11 15 -40 15
-29 0 -40 -4 -40 -15z"/>
<path d="M335 60 c-3 -5 -1 -10 4 -10 6 0 11 5 11 10 0 6 -2 10 -4 10 -3 0 -8
-4 -11 -10z"/>
<path d="M370 250 c0 -109 2 -130 15 -130 13 0 15 21 15 130 0 109 -2 130 -15
130 -13 0 -15 -21 -15 -130z"/>
</g>
</svg>
