<?xml version="1.0" standalone="no"?>
<!DOCTYPE svg PUBLIC "-//W3C//DTD SVG 20010904//EN"
 "http://www.w3.org/TR/2001/REC-SVG-20010904/DTD/svg10.dtd">
<svg version="1.0" xmlns="http://www.w3.org/2000/svg"
 width="50.000000pt" height="50.000000pt" viewBox="0 0 50.000000 50.000000"
 preserveAspectRatio="xMidYMid meet">

<g transform="translate(0.000000,50.000000) scale(0.100000,-0.100000)"
fill="#243035" stroke="none">
<path d="M155 456 c-60 -28 -87 -56 -114 -116 -36 -79 -19 -183 42 -249 33
-36 115 -71 167 -71 52 0 134 35 167 71 34 37 63 110 63 159 0 52 -35 134 -71
167 -37 34 -110 63 -159 63 -27 0 -65 -10 -95 -24z m241 -60 c24 -24 44 -48
44 -53 0 -6 -23 -20 -51 -33 l-52 -22 -24 25 -25 24 22 52 c13 28 27 51 33 51
5 0 29 -20 53 -44z m-99 -98 c29 -27 29 -65 1 -95 -27 -29 -65 -29 -95 -1 -29
27 -29 65 -1 95 27 29 65 29 95 1z m-107 -113 l23 -24 -20 -47 c-10 -26 -25
-50 -31 -52 -14 -4 -102 79 -102 95 0 9 83 52 101 53 3 0 16 -11 29 -25z"/>
<path d="M224 266 c-10 -26 4 -48 28 -44 17 2 23 10 23 28 0 18 -6 26 -23 28
-13 2 -25 -3 -28 -12z"/>
</g>
</svg>
