<?xml version="1.0" standalone="no"?>
<!DOCTYPE svg PUBLIC "-//W3C//DTD SVG 20010904//EN"
 "http://www.w3.org/TR/2001/REC-SVG-20010904/DTD/svg10.dtd">
<svg version="1.0" xmlns="http://www.w3.org/2000/svg"
 width="30.000000pt" height="30.000000pt" viewBox="0 0 30.000000 30.000000"
 preserveAspectRatio="xMidYMid meet">

<g transform="translate(0.000000,30.000000) scale(0.100000,-0.100000)"
fill="#13191c" stroke="none">
<path d="M27 263 c-4 -3 -7 -15 -7 -25 0 -17 11 -18 131 -18 100 0 130 3 127
13 -3 8 -32 13 -84 15 -43 2 -83 7 -88 12 -11 11 -69 13 -79 3z"/>
<path d="M22 128 l3 -73 125 0 125 0 3 73 3 72 -131 0 -131 0 3 -72z"/>
</g>
</svg>
