<?xml version="1.0" encoding="UTF-8"?>
<!DOCTYPE svg PUBLIC "-//W3C//DTD SVG 1.1//EN" "http://www.w3.org/Graphics/SVG/1.1/DTD/svg11.dtd">
<svg xmlns="http://www.w3.org/2000/svg" version="1.1" width="100px" height="100px" style="shape-rendering:geometricPrecision; text-rendering:geometricPrecision; image-rendering:optimizeQuality; fill-rule:evenodd; clip-rule:evenodd" xmlns:xlink="http://www.w3.org/1999/xlink">
<g><path style="opacity:0.917" fill="#243035" d="M 48.5,6.5 C 49.4959,6.41423 50.3292,6.74756 51,7.5C 51.4994,12.8229 51.666,18.1563 51.5,23.5C 50.1667,23.5 48.8333,23.5 47.5,23.5C 47.2143,17.7414 47.5476,12.0748 48.5,6.5 Z"/></g>
<g><path style="opacity:0.731" fill="#243035" d="M 19.5,18.5 C 20.552,18.3505 21.552,18.5172 22.5,19C 25.6667,22.1667 28.8333,25.3333 32,28.5C 32.8333,31.6667 31.6667,32.8333 28.5,32C 25.3333,28.8333 22.1667,25.6667 19,22.5C 18.4209,21.0715 18.5876,19.7382 19.5,18.5 Z"/></g>
<g><path style="opacity:0.73" fill="#243035" d="M 76.5,18.5 C 79.6802,18.1762 80.8469,19.5096 80,22.5C 76.8333,25.6667 73.6667,28.8333 70.5,32C 67.3333,32.8333 66.1667,31.6667 67,28.5C 70.3709,25.2975 73.5375,21.9641 76.5,18.5 Z"/></g>
<g><path style="opacity:0.948" fill="#243035" d="M 42.5,29.5 C 62.6499,27.4828 71.4833,36.4828 69,56.5C 63.6574,67.7523 54.8241,71.9189 42.5,69C 31.2477,63.6574 27.0811,54.8241 30,42.5C 32.3531,36.3154 36.5198,31.982 42.5,29.5 Z"/></g>
<g><path style="opacity:0.931" fill="#243035" d="M 7.5,47.5 C 12.8333,47.5 18.1667,47.5 23.5,47.5C 23.5,48.8333 23.5,50.1667 23.5,51.5C 18.1563,51.666 12.8229,51.4994 7.5,51C 6.3157,49.8545 6.3157,48.6879 7.5,47.5 Z"/></g>
<g><path style="opacity:0.931" fill="#243035" d="M 75.5,47.5 C 80.8333,47.5 86.1667,47.5 91.5,47.5C 91.5,48.8333 91.5,50.1667 91.5,51.5C 86.1563,51.666 80.8229,51.4994 75.5,51C 74.3157,49.8545 74.3157,48.6879 75.5,47.5 Z"/></g>
<g><path style="opacity:0.729" fill="#243035" d="M 28.5,66.5 C 31.6802,66.1762 32.8469,67.5096 32,70.5C 28.8333,73.6667 25.6667,76.8333 22.5,80C 19.3333,80.8333 18.1667,79.6667 19,76.5C 22.3709,73.2975 25.5375,69.9641 28.5,66.5 Z"/></g>
<g><path style="opacity:0.731" fill="#243035" d="M 67.5,66.5 C 68.552,66.3505 69.552,66.5172 70.5,67C 73.6667,70.1667 76.8333,73.3333 80,76.5C 80.8333,79.6667 79.6667,80.8333 76.5,80C 73.3333,76.8333 70.1667,73.6667 67,70.5C 66.4209,69.0715 66.5876,67.7382 67.5,66.5 Z"/></g>
<g><path style="opacity:0.917" fill="#243035" d="M 48.5,74.5 C 49.4959,74.4142 50.3292,74.7476 51,75.5C 51.4994,80.8229 51.666,86.1563 51.5,91.5C 50.1667,91.5 48.8333,91.5 47.5,91.5C 47.2143,85.7414 47.5476,80.0748 48.5,74.5 Z"/></g>
</svg>
