<?xml version="1.0" encoding="UTF-8"?>
<!DOCTYPE svg PUBLIC "-//W3C//DTD SVG 1.1//EN" "http://www.w3.org/Graphics/SVG/1.1/DTD/svg11.dtd">
<svg xmlns="http://www.w3.org/2000/svg" version="1.1" width="100px" height="100px" style="shape-rendering:geometricPrecision; text-rendering:geometricPrecision; image-rendering:optimizeQuality; fill-rule:evenodd; clip-rule:evenodd" xmlns:xlink="http://www.w3.org/1999/xlink">
<g><path style="opacity:0.906" fill="#000000" d="M 29.5,11.5 C 30.8333,11.5 32.1667,11.5 33.5,11.5C 33.5,12.8333 33.5,14.1667 33.5,15.5C 34.8333,15.5 36.1667,15.5 37.5,15.5C 37.5,16.8333 37.5,18.1667 37.5,19.5C 36.1667,19.5 34.8333,19.5 33.5,19.5C 33.5,20.8333 33.5,22.1667 33.5,23.5C 32.1667,23.5 30.8333,23.5 29.5,23.5C 29.5,22.1667 29.5,20.8333 29.5,19.5C 28.1667,19.5 26.8333,19.5 25.5,19.5C 25.5,18.1667 25.5,16.8333 25.5,15.5C 26.8333,15.5 28.1667,15.5 29.5,15.5C 29.5,14.1667 29.5,12.8333 29.5,11.5 Z"/></g>
<g><path style="opacity:0.941" fill="#000000" d="M 55.5,24.5 C 55.3259,45.1584 65.6592,55.325 86.5,55C 82.4,75.2271 70.0667,83.8937 49.5,81C 33.2479,74.6711 26.7479,62.8378 30,45.5C 34.231,33.1557 42.731,26.1557 55.5,24.5 Z"/></g>
<g><path style="opacity:0.844" fill="#000000" d="M 13.5,35.5 C 16.4905,35.3297 18.4905,36.663 19.5,39.5C 16.8333,44.8333 14.1667,44.8333 11.5,39.5C 12.2255,38.1331 12.8921,36.7997 13.5,35.5 Z"/></g>
</svg>
