<?xml version="1.0" encoding="UTF-8"?>
<!DOCTYPE svg PUBLIC "-//W3C//DTD SVG 1.1//EN" "http://www.w3.org/Graphics/SVG/1.1/DTD/svg11.dtd">
<svg xmlns="http://www.w3.org/2000/svg" version="1.1" width="100px" height="100px" style="shape-rendering:geometricPrecision; text-rendering:geometricPrecision; image-rendering:optimizeQuality; fill-rule:evenodd; clip-rule:evenodd" xmlns:xlink="http://www.w3.org/1999/xlink">
<g><path style="opacity:0.905" fill="#000000" d="M 32.5,6.5 C 33.4959,6.41423 34.3292,6.74756 35,7.5C 35.4992,12.1548 35.6658,16.8215 35.5,21.5C 34.1667,21.5 32.8333,21.5 31.5,21.5C 31.2213,16.4053 31.5546,11.4053 32.5,6.5 Z"/></g>
<g><path style="opacity:0.755" fill="#000000" d="M 8.5,16.5 C 9.87344,16.3433 11.2068,16.51 12.5,17C 15,19.5 17.5,22 20,24.5C 20.8333,27.6667 19.6667,28.8333 16.5,28C 14,25.5 11.5,23 9,20.5C 8.50999,19.2068 8.34332,17.8734 8.5,16.5 Z"/></g>
<g><path style="opacity:0.759" fill="#000000" d="M 54.5,16.5 C 55.8333,16.5 57.1667,16.5 58.5,16.5C 57.1021,21.7493 53.9354,25.7493 49,28.5C 46.8125,27.9407 46.1458,26.6073 47,24.5C 49.705,21.9638 52.205,19.2971 54.5,16.5 Z"/></g>
<g><path style="opacity:0.903" fill="#000000" d="M 27.5,25.5 C 31.5138,25.3345 35.5138,25.5012 39.5,26C 42.0758,26.7822 44.0758,28.2822 45.5,30.5C 43.1833,33.3174 40.6833,35.9841 38,38.5C 35.5212,42.1229 34.1878,46.1229 34,50.5C 30.7968,51.77 28.1301,53.77 26,56.5C 20.054,53.2756 17.2206,48.2756 17.5,41.5C 17.3021,33.8846 20.6354,28.5513 27.5,25.5 Z"/></g>
<g><path style="opacity:0.969" fill="#000000" d="M 99.5,57.5 C 99.5,61.5 99.5,65.5 99.5,69.5C 97.3502,75.1478 93.3502,78.9812 87.5,81C 69.8333,81.6667 52.1667,81.6667 34.5,81C 25.9325,77.1964 23.0992,70.6964 26,61.5C 28.3573,56.633 32.1907,53.9663 37.5,53.5C 36.6714,43.1713 41.0048,36.0046 50.5,32C 59.0546,29.9643 66.5546,31.7976 73,37.5C 74.9927,39.8175 76.1594,42.4842 76.5,45.5C 87.5024,43.5712 95.1691,47.5712 99.5,57.5 Z"/></g>
<g><path style="opacity:0.944" fill="#000000" d="M -0.5,39.5 C 4.16667,39.5 8.83333,39.5 13.5,39.5C 13.5,40.8333 13.5,42.1667 13.5,43.5C 8.83333,43.5 4.16667,43.5 -0.5,43.5C -0.5,42.1667 -0.5,40.8333 -0.5,39.5 Z"/></g>
<g><path style="opacity:0.751" fill="#000000" d="M 16.5,54.5 C 19.6802,54.1762 20.8469,55.5096 20,58.5C 17.5,61 15,63.5 12.5,66C 11.2068,66.49 9.87344,66.6567 8.5,66.5C 8.34332,65.1266 8.50999,63.7932 9,62.5C 11.705,59.9638 14.205,57.2971 16.5,54.5 Z"/></g>
</svg>
