<?xml version="1.0" encoding="UTF-8"?>
<!DOCTYPE svg PUBLIC "-//W3C//DTD SVG 1.1//EN" "http://www.w3.org/Graphics/SVG/1.1/DTD/svg11.dtd">
<svg xmlns="http://www.w3.org/2000/svg" version="1.1" width="100px" height="100px" style="shape-rendering:geometricPrecision; text-rendering:geometricPrecision; image-rendering:optimizeQuality; fill-rule:evenodd; clip-rule:evenodd" xmlns:xlink="http://www.w3.org/1999/xlink">
<g><path style="opacity:0.87" fill="#000000" d="M 22.5,10.5 C 25.0838,11.0483 26.0838,12.715 25.5,15.5C 26.8333,15.5 28.1667,15.5 29.5,15.5C 29.5,16.8333 29.5,18.1667 29.5,19.5C 28.1667,19.5 26.8333,19.5 25.5,19.5C 25.5,20.8333 25.5,22.1667 25.5,23.5C 24.1667,23.5 22.8333,23.5 21.5,23.5C 21.5,22.1667 21.5,20.8333 21.5,19.5C 19.3352,19.8841 17.6685,19.2174 16.5,17.5C 17.6685,15.7826 19.3352,15.1159 21.5,15.5C 21.366,13.7085 21.6993,12.0418 22.5,10.5 Z"/></g>
<g><path style="opacity:0.887" fill="#000000" d="M 71.5,10.5 C 71.6805,26.6721 80.0139,34.3388 96.5,33.5C 96.0265,40.0963 93.5265,45.7629 89,50.5C 83.5338,44.5069 76.7004,41.5069 68.5,41.5C 64.6312,34.6296 58.9646,29.9629 51.5,27.5C 55.1642,18.1599 61.8308,12.4933 71.5,10.5 Z"/></g>
<g><path style="opacity:0.969" fill="#000000" d="M 40.5,31.5 C 49.0597,29.9613 56.5597,31.9613 63,37.5C 64.9927,39.8175 66.1594,42.4842 66.5,45.5C 85.5549,44.9214 92.7216,53.9214 88,72.5C 85.6849,76.8168 82.1849,79.6502 77.5,81C 58.7678,81.961 40.1011,81.6277 21.5,80C 15.7803,75.1162 13.9469,68.9495 16,61.5C 18.3573,56.633 22.1907,53.9663 27.5,53.5C 26.885,43.1401 31.2183,35.8068 40.5,31.5 Z"/></g>
<g><path style="opacity:0.791" fill="#000000" d="M 6.5,34.5 C 8.8089,35.3877 10.4756,37.0544 11.5,39.5C 8.67421,44.6232 5.67421,44.6232 2.5,39.5C 4.20651,38.1274 5.53984,36.4607 6.5,34.5 Z"/></g>
</svg>
