<?xml version="1.0" encoding="UTF-8"?>
<!DOCTYPE svg PUBLIC "-//W3C//DTD SVG 1.1//EN" "http://www.w3.org/Graphics/SVG/1.1/DTD/svg11.dtd">
<svg xmlns="http://www.w3.org/2000/svg" version="1.1" width="100px" height="100px" style="shape-rendering:geometricPrecision; text-rendering:geometricPrecision; image-rendering:optimizeQuality; fill-rule:evenodd; clip-rule:evenodd" xmlns:xlink="http://www.w3.org/1999/xlink">
<g><path style="opacity:0.975" fill="#000000" d="M 99.5,55.5 C 99.5,59.5 99.5,63.5 99.5,67.5C 97.3502,73.1478 93.3502,76.9812 87.5,79C 62.5,79.6667 37.5,79.6667 12.5,79C 6.31536,76.6469 1.98203,72.4802 -0.5,66.5C -0.5,62.1667 -0.5,57.8333 -0.5,53.5C 1.75319,48.0782 5.58652,44.0782 11,41.5C 14.5544,30.056 21.8878,26.3893 33,30.5C 43.6758,15.5984 57.1758,12.4318 73.5,21C 80.5105,26.8523 84.5105,34.3523 85.5,43.5C 91.8549,45.6568 96.5216,49.6568 99.5,55.5 Z"/></g>
</svg>
