<?xml version="1.0" encoding="UTF-8"?>
<!DOCTYPE svg PUBLIC "-//W3C//DTD SVG 1.1//EN" "http://www.w3.org/Graphics/SVG/1.1/DTD/svg11.dtd">
<svg xmlns="http://www.w3.org/2000/svg" version="1.1" width="100px" height="100px" style="shape-rendering:geometricPrecision; text-rendering:geometricPrecision; image-rendering:optimizeQuality; fill-rule:evenodd; clip-rule:evenodd" xmlns:xlink="http://www.w3.org/1999/xlink">
<g><path style="opacity:0.966" fill="#000000" d="M 37.5,9.5 C 49.8468,7.17483 58.8468,11.5082 64.5,22.5C 84.5784,21.4079 93.4117,30.7412 91,50.5C 86.2835,60.6793 78.6168,65.0126 68,63.5C 66.3333,64.1667 64.6667,64.8333 63,65.5C 61.3333,64.8333 59.6667,64.1667 58,63.5C 56.3333,64.1667 54.6667,64.8333 53,65.5C 51.3333,64.8333 49.6667,64.1667 48,63.5C 46.3333,64.1667 44.6667,64.8333 43,65.5C 41.3333,64.8333 39.6667,64.1667 38,63.5C 36.3333,64.1667 34.6667,64.8333 33,65.5C 29.3357,62.6346 26.0024,62.968 23,66.5C 18.3279,63.9966 13.9945,60.9966 10,57.5C 6.66667,50.8333 6.66667,44.1667 10,37.5C 13.4773,33.1776 17.9773,31.1776 23.5,31.5C 23.1291,20.8985 27.7958,13.5652 37.5,9.5 Z"/></g>
<g><path style="opacity:0.647" fill="#000000" d="M 30.5,66.5 C 32.1316,66.8247 33.1316,67.8247 33.5,69.5C 32.9537,71.1347 32.6204,72.8014 32.5,74.5C 30.0516,74.9899 28.385,74.1566 27.5,72C 27.8951,69.7516 28.8951,67.9183 30.5,66.5 Z"/></g>
<g><path style="opacity:0.647" fill="#000000" d="M 50.5,66.5 C 52.1316,66.8247 53.1316,67.8247 53.5,69.5C 52.9537,71.1347 52.6204,72.8014 52.5,74.5C 50.0516,74.9899 48.385,74.1566 47.5,72C 47.8951,69.7516 48.8951,67.9183 50.5,66.5 Z"/></g>
<g><path style="opacity:0.647" fill="#000000" d="M 70.5,66.5 C 72.1316,66.8247 73.1316,67.8247 73.5,69.5C 72.9537,71.1347 72.6204,72.8014 72.5,74.5C 70.0516,74.9899 68.385,74.1566 67.5,72C 67.8951,69.7516 68.8951,67.9183 70.5,66.5 Z"/></g>
<g><path style="opacity:0.673" fill="#000000" d="M 19.5,69.5 C 23.3028,72.7752 23.1362,76.1085 19,79.5C 15.8999,76.1109 16.0666,72.7776 19.5,69.5 Z"/></g>
<g><path style="opacity:0.673" fill="#000000" d="M 39.5,69.5 C 43.3028,72.7752 43.1362,76.1085 39,79.5C 35.8999,76.1109 36.0666,72.7776 39.5,69.5 Z"/></g>
<g><path style="opacity:0.67" fill="#000000" d="M 59.5,69.5 C 63.3028,72.7752 63.1362,76.1085 59,79.5C 55.8999,76.1109 56.0666,72.7776 59.5,69.5 Z"/></g>
<g><path style="opacity:0.652" fill="#000000" d="M 26.5,75.5 C 27.8333,75.5 29.1667,75.5 30.5,75.5C 30.6621,77.5273 30.4955,79.5273 30,81.5C 28.6439,82.3802 27.1439,82.7135 25.5,82.5C 25.448,80.0971 25.7814,77.7638 26.5,75.5 Z"/></g>
<g><path style="opacity:0.652" fill="#000000" d="M 46.5,75.5 C 47.8333,75.5 49.1667,75.5 50.5,75.5C 50.6621,77.5273 50.4955,79.5273 50,81.5C 48.6439,82.3802 47.1439,82.7135 45.5,82.5C 45.448,80.0971 45.7814,77.7638 46.5,75.5 Z"/></g>
<g><path style="opacity:0.652" fill="#000000" d="M 66.5,75.5 C 67.8333,75.5 69.1667,75.5 70.5,75.5C 70.6621,77.5273 70.4955,79.5273 70,81.5C 68.6439,82.3802 67.1439,82.7135 65.5,82.5C 65.448,80.0971 65.7814,77.7638 66.5,75.5 Z"/></g>
<g><path style="opacity:0.707" fill="#000000" d="M 13.5,83.5 C 15.1667,83.5 16.8333,83.5 18.5,83.5C 19.5749,87.938 17.9083,89.938 13.5,89.5C 13.5,87.5 13.5,85.5 13.5,83.5 Z"/></g>
<g><path style="opacity:0.707" fill="#000000" d="M 33.5,83.5 C 35.1667,83.5 36.8333,83.5 38.5,83.5C 39.5749,87.938 37.9083,89.938 33.5,89.5C 33.5,87.5 33.5,85.5 33.5,83.5 Z"/></g>
<g><path style="opacity:0.707" fill="#000000" d="M 53.5,83.5 C 55.1667,83.5 56.8333,83.5 58.5,83.5C 59.5749,87.938 57.9083,89.938 53.5,89.5C 53.5,87.5 53.5,85.5 53.5,83.5 Z"/></g>
</svg>
