<?xml version="1.0" encoding="UTF-8"?>
<!DOCTYPE svg PUBLIC "-//W3C//DTD SVG 1.1//EN" "http://www.w3.org/Graphics/SVG/1.1/DTD/svg11.dtd">
<svg xmlns="http://www.w3.org/2000/svg" version="1.1" width="100px" height="100px" style="shape-rendering:geometricPrecision; text-rendering:geometricPrecision; image-rendering:optimizeQuality; fill-rule:evenodd; clip-rule:evenodd" xmlns:xlink="http://www.w3.org/1999/xlink">
<g><path style="opacity:0.971" fill="#000000" d="M 37.5,9.5 C 50.8833,7.1032 60.0499,12.1032 65,24.5C 84.8725,21.7054 93.5391,30.3721 91,50.5C 88.8333,56.6667 84.6667,60.8333 78.5,63C 58.1667,63.6667 37.8333,63.6667 17.5,63C 8.51778,58.5269 5.35111,51.3603 8,41.5C 10.814,34.5102 15.9807,31.1769 23.5,31.5C 23.1291,20.8985 27.7958,13.5652 37.5,9.5 Z"/></g>
<g><path style="opacity:0.796" fill="#000000" d="M 47.5,67.5 C 48.8333,67.5 50.1667,67.5 51.5,67.5C 51.1667,72.5 48.5,75.1667 43.5,75.5C 43.3433,74.1266 43.51,72.7932 44,71.5C 45.3756,70.2949 46.5423,68.9616 47.5,67.5 Z"/></g>
<g><path style="opacity:0.796" fill="#000000" d="M 25.5,69.5 C 26.8333,69.5 28.1667,69.5 29.5,69.5C 29.1667,74.5 26.5,77.1667 21.5,77.5C 21.3433,76.1266 21.51,74.7932 22,73.5C 23.3756,72.2949 24.5423,70.9616 25.5,69.5 Z"/></g>
<g><path style="opacity:0.796" fill="#000000" d="M 65.5,69.5 C 66.8333,69.5 68.1667,69.5 69.5,69.5C 69.1667,74.5 66.5,77.1667 61.5,77.5C 61.3433,76.1266 61.51,74.7932 62,73.5C 63.3756,72.2949 64.5423,70.9616 65.5,69.5 Z"/></g>
</svg>
