<?xml version="1.0" encoding="UTF-8"?>
<!DOCTYPE svg PUBLIC "-//W3C//DTD SVG 1.1//EN" "http://www.w3.org/Graphics/SVG/1.1/DTD/svg11.dtd">
<svg xmlns="http://www.w3.org/2000/svg" version="1.1" width="100px" height="100px" style="shape-rendering:geometricPrecision; text-rendering:geometricPrecision; image-rendering:optimizeQuality; fill-rule:evenodd; clip-rule:evenodd" xmlns:xlink="http://www.w3.org/1999/xlink">
<g><path style="opacity:0.939" fill="#000000" d="M 37.5,7.5 C 49.8468,5.17483 58.8468,9.50816 64.5,20.5C 84.5784,19.4079 93.4117,28.7412 91,48.5C 88.8333,54.6667 84.6667,58.8333 78.5,61C 72.5,61.3333 66.5,61.6667 60.5,62C 58.8333,63.6667 57.1667,65.3333 55.5,67C 58.5,67.3333 61.5,67.6667 64.5,68C 57.3153,74.6858 49.9819,81.1858 42.5,87.5C 41.5923,86.21 41.759,84.8767 43,83.5C 45.6244,79.752 48.1244,75.9187 50.5,72C 48.0995,71.8142 45.7662,71.3142 43.5,70.5C 45.475,67.3905 47.8084,64.5572 50.5,62C 48.1667,61.3333 45.8333,61.3333 43.5,62C 38.9788,66.0223 34.3121,69.8556 29.5,73.5C 29.1667,73.3333 28.8333,73.1667 28.5,73C 31.2055,69.758 33.5388,66.258 35.5,62.5C 29.5275,61.6697 23.5275,61.1697 17.5,61C 8.51778,56.5269 5.35111,49.3603 8,39.5C 10.814,32.5102 15.9807,29.1769 23.5,29.5C 23.1291,18.8985 27.7958,11.5652 37.5,7.5 Z M 45.5,39.5 C 48.5184,39.3354 51.5184,39.502 54.5,40C 50.1667,44.3333 45.8333,48.6667 41.5,53C 44.1667,53.3333 46.8333,53.6667 49.5,54C 47.1667,56.3333 44.8333,58.6667 42.5,61C 38.1971,62.2358 37.1971,61.4025 39.5,58.5C 37.2338,57.6858 34.9005,57.1858 32.5,57C 37.075,51.2708 41.4083,45.4375 45.5,39.5 Z M 57.5,53.5 C 60.5184,53.3354 63.5184,53.502 66.5,54C 63.7587,57.7679 60.2587,60.2679 56,61.5C 54.8333,61.3333 53.6667,61.1667 52.5,61C 54.4146,58.6004 56.0812,56.1004 57.5,53.5 Z"/></g>
</svg>
