<?xml version="1.0" encoding="UTF-8"?>
<!DOCTYPE svg PUBLIC "-//W3C//DTD SVG 1.1//EN" "http://www.w3.org/Graphics/SVG/1.1/DTD/svg11.dtd">
<svg xmlns="http://www.w3.org/2000/svg" version="1.1" width="100px" height="100px" style="shape-rendering:geometricPrecision; text-rendering:geometricPrecision; image-rendering:optimizeQuality; fill-rule:evenodd; clip-rule:evenodd" xmlns:xlink="http://www.w3.org/1999/xlink">
<g><path style="opacity:0.931" fill="#243035" d="M 37.5,9.5 C 49.8468,7.17483 58.8468,11.5082 64.5,22.5C 84.5784,21.4079 93.4117,30.7412 91,50.5C 88.8333,56.6667 84.6667,60.8333 78.5,63C 69.1667,63.6667 59.8333,63.6667 50.5,63C 51.7836,61.7025 51.6169,60.5358 50,59.5C 48.1089,52.3629 49.7755,51.0295 55,55.5C 55.23,59.4828 56.5634,60.1494 59,57.5C 60.1827,58.731 61.3493,58.731 62.5,57.5C 61.2048,55.6721 60.2048,53.6721 59.5,51.5C 56.5366,53.4136 53.8699,52.7469 51.5,49.5C 53.8699,46.2531 56.5366,45.5864 59.5,47.5C 60.2048,45.3279 61.2048,43.3279 62.5,41.5C 61.3493,40.269 60.1827,40.269 59,41.5C 56.5634,38.8506 55.23,39.5172 55,43.5C 49.7755,47.9705 48.1089,46.6371 50,39.5C 50.6924,38.9747 51.1924,38.3081 51.5,37.5C 48.8333,30.8333 46.1667,30.8333 43.5,37.5C 45.4357,40.208 45.9357,43.208 45,46.5C 43.3333,45.5 41.6667,44.5 40,43.5C 39.77,39.5172 38.4366,38.8506 36,41.5C 34.8173,40.269 33.6507,40.269 32.5,41.5C 33.7952,43.3279 34.7952,45.3279 35.5,47.5C 38.4634,45.5864 41.1301,46.2531 43.5,49.5C 41.1301,52.7469 38.4634,53.4136 35.5,51.5C 34.7952,53.6721 33.7952,55.6721 32.5,57.5C 33.6507,58.731 34.8173,58.731 36,57.5C 38.4366,60.1494 39.77,59.4828 40,55.5C 45.2245,51.0295 46.8911,52.3629 45,59.5C 43.3831,60.5358 43.2164,61.7025 44.5,63C 35.5,63.6667 26.5,63.6667 17.5,63C 8.51778,58.5269 5.35111,51.3603 8,41.5C 10.814,34.5102 15.9807,31.1769 23.5,31.5C 23.1291,20.8985 27.7958,13.5652 37.5,9.5 Z"/></g>
<g><path style="opacity:0.882" fill="#243035" d="M 45.5,63.5 C 46.8333,63.5 48.1667,63.5 49.5,63.5C 49.5,64.8333 49.5,66.1667 49.5,67.5C 48.1667,67.5 46.8333,67.5 45.5,67.5C 45.5,66.1667 45.5,64.8333 45.5,63.5 Z"/></g>
<g><path style="opacity:0.803" fill="#243035" d="M 77.5,67.5 C 80.2385,66.9648 82.0718,67.9648 83,70.5C 84.3561,69.6198 85.8561,69.2865 87.5,69.5C 88.0352,72.2385 87.0352,74.0718 84.5,75C 85.3802,76.3561 85.7135,77.8561 85.5,79.5C 82.7615,80.0352 80.9282,79.0352 80,76.5C 77.695,77.9388 75.8616,77.4388 74.5,75C 75.5505,73.6152 76.8839,72.6152 78.5,72C 77.6198,70.6439 77.2865,69.1439 77.5,67.5 Z"/></g>
<g><path style="opacity:0.803" fill="#243035" d="M 13.5,69.5 C 16.2385,68.9648 18.0718,69.9648 19,72.5C 20.3561,71.6198 21.8561,71.2865 23.5,71.5C 24.0352,74.2385 23.0352,76.0718 20.5,77C 21.3802,78.3561 21.7135,79.8561 21.5,81.5C 18.7615,82.0352 16.9282,81.0352 16,78.5C 13.695,79.9388 11.8616,79.4388 10.5,77C 11.5505,75.6152 12.8839,74.6152 14.5,74C 13.6198,72.6439 13.2865,71.1439 13.5,69.5 Z"/></g>
<g><path style="opacity:0.803" fill="#243035" d="M 47.5,77.5 C 50.2385,76.9648 52.0718,77.9648 53,80.5C 54.3561,79.6198 55.8561,79.2865 57.5,79.5C 58.0352,82.2385 57.0352,84.0718 54.5,85C 55.3802,86.3561 55.7135,87.8561 55.5,89.5C 52.7615,90.0352 50.9282,89.0352 50,86.5C 47.695,87.9388 45.8616,87.4388 44.5,85C 45.5505,83.6152 46.8839,82.6152 48.5,82C 47.6198,80.6439 47.2865,79.1439 47.5,77.5 Z"/></g>
<g><path style="opacity:0.803" fill="#243035" d="M 27.5,85.5 C 30.2385,84.9648 32.0718,85.9648 33,88.5C 34.3561,87.6198 35.8561,87.2865 37.5,87.5C 38.0352,90.2385 37.0352,92.0718 34.5,93C 35.3802,94.3561 35.7135,95.8561 35.5,97.5C 32.7615,98.0352 30.9282,97.0352 30,94.5C 27.695,95.9388 25.8616,95.4388 24.5,93C 25.5505,91.6152 26.8839,90.6152 28.5,90C 27.6198,88.6439 27.2865,87.1439 27.5,85.5 Z"/></g>
<g><path style="opacity:0.803" fill="#243035" d="M 67.5,85.5 C 70.2385,84.9648 72.0718,85.9648 73,88.5C 74.3561,87.6198 75.8561,87.2865 77.5,87.5C 78.0352,90.2385 77.0352,92.0718 74.5,93C 75.3802,94.3561 75.7135,95.8561 75.5,97.5C 72.7615,98.0352 70.9282,97.0352 70,94.5C 67.695,95.9388 65.8616,95.4388 64.5,93C 65.5505,91.6152 66.8839,90.6152 68.5,90C 67.6198,88.6439 67.2865,87.1439 67.5,85.5 Z"/></g>
</svg>
