<?xml version="1.0" encoding="UTF-8"?>
<!DOCTYPE svg PUBLIC "-//W3C//DTD SVG 1.1//EN" "http://www.w3.org/Graphics/SVG/1.1/DTD/svg11.dtd">
<svg xmlns="http://www.w3.org/2000/svg" version="1.1" width="100px" height="100px" style="shape-rendering:geometricPrecision; text-rendering:geometricPrecision; image-rendering:optimizeQuality; fill-rule:evenodd; clip-rule:evenodd" xmlns:xlink="http://www.w3.org/1999/xlink">
<g><path style="opacity:0.955" fill="#000000" d="M 51.5,9.5 C 69.1975,7.31515 78.5309,14.9818 79.5,32.5C 91.166,35.4931 95.3326,42.8264 92,54.5C 90.1667,57.6667 87.6667,60.1667 84.5,62C 78.5933,63.3608 72.5933,63.8608 66.5,63.5C 66.7394,65.4672 66.4061,67.3005 65.5,69C 50.1703,69.4999 34.837,69.6666 19.5,69.5C 19.67,68.1779 19.3366,67.0113 18.5,66C 19.1667,65 19.8333,64 20.5,63C 28.1667,62.6667 35.8333,62.3333 43.5,62C 46.1667,60.3333 46.1667,58.6667 43.5,57C 29.925,56.8239 16.425,56.3239 3,55.5C 2.25711,53.5594 2.42378,51.7261 3.5,50C 12.1667,49.6667 20.8333,49.3333 29.5,49C 32.9153,47.8567 33.2486,46.19 30.5,44C 22.4793,43.8316 14.4793,43.3316 6.5,42.5C 9.09319,36.9071 13.4265,33.5737 19.5,32.5C 21.9165,22.1191 28.5832,17.4524 39.5,18.5C 42.4931,14.0189 46.4931,11.0189 51.5,9.5 Z"/></g>
<g><path style="opacity:0.808" fill="#000000" d="M 7.5,75.5 C 16.5062,75.3336 25.5062,75.5002 34.5,76C 37.1667,78.3333 37.1667,80.6667 34.5,83C 25.5,83.6667 16.5,83.6667 7.5,83C 4.91418,80.506 4.91418,78.006 7.5,75.5 Z"/></g>
</svg>
